PathFileType	4	(X/Y/Z)	C:\Users\chris\Documents\GitHub\baseballds\vids\pitch7_Sports2D\pitch7_Sports2D_m_person00.trc
DataRate	CameraRate	NumFrames	NumMarkers	Units	OrigDataRate	OrigDataStartFrame	OrigNumFrames
30	30	8	22	m	30	147	236
Frame#	Time	Hip			RHip			RKnee			RAnkle			RBigToe			RSmallToe			RHeel			LHip			LKnee			LAnkle			LBigToe			LSmallToe			LHeel			Neck			Head			Nose			RShoulder			RElbow			RWrist			LShoulder			LElbow			LWrist		
		X1	Y1	Z1	X2	Y2	Z2	X3	Y3	Z3	X4	Y4	Z4	X5	Y5	Z5	X6	Y6	Z6	X7	Y7	Z7	X8	Y8	Z8	X9	Y9	Z9	X10	Y10	Z10	X11	Y11	Z11	X12	Y12	Z12	X13	Y13	Z13	X14	Y14	Z14	X15	Y15	Z15	X16	Y16	Z16	X17	Y17	Z17	X18	Y18	Z18	X19	Y19	Z19	X20	Y20	Z20	X21	Y21	Z21	X22	Y22	Z22
147	4.9	1.8695402026378873	0.8868953556398815	0.0	1.764803294654337	0.862204904441769	0.0	1.7682134949455075	0.4739835569815899	0.0	1.7366964134716045	0.129741341336123	0.0	1.7601722302430733	-0.0036168714096386618	0.0	1.6897757187212452	0.003143233693912529	0.0	1.7441727663494417	0.08032799845390219	0.0	1.971902133888703	0.8630629016518622	0.0	2.0299985693228644	0.48159003897911423	0.0	2.120534609059235	0.1646497517522283	0.0	2.0707643932272077	0.02056250415813324	0.0	2.1409494963996982	0.025107364011840636	0.0	2.145130738025977	0.11358883656620214	0.0	1.8616219510999739	1.4932909913908738	0.0	1.896539113171072	1.763613428533856	0.0	1.9895742146007365	1.6308289675900451	0.0	1.6797907346223615	1.3848836906563968	0.0	1.6034304059893045	1.1057210799437476	0.0	1.7858233690056555	1.0446613824567588	0.0	2.040264466037328	1.40291054710885	0.0	2.111043988992452	1.1306712671053638	0.0	2.0177906777299004	1.0214778335108943	0.0
148	4.933333333333334	1.871928146802115	0.8888975640687506	0.0	1.766523885698391	0.8636461398850589	0.0	1.7674817374305565	0.4720623771408122	0.0	1.736569662718635	0.1295190635782687	0.0	1.758698463701994	-0.007378885201359198	0.0	1.6897520873591971	0.0013183660145979943	0.0	1.7455336126869962	0.07847329419676138	0.0	1.9731045601671826	0.8623695796666796	0.0	2.0318438289501164	0.4804918952402351	0.0	2.122033620291389	0.16521301041897177	0.0	2.068858427656978	0.020100462104088158	0.0	2.140099081504322	0.02509926717408113	0.0	2.1463730288607445	0.1142796728895229	0.0	1.8647484468841538	1.493963949193809	0.0	1.8998306875703923	1.765502918860972	0.0	1.9929844590689043	1.632923947486927	0.0	1.6810508898004406	1.387150880931683	0.0	1.6066720934174707	1.1029451807389465	0.0	1.790218986839755	1.0499805364963195	0.0	2.043766129871348	1.4042657088654835	0.0	2.111949153279121	1.1292985102049808	0.0	2.0242550876150314	1.0228931770860543	0.0
149	4.966666666666667	1.8732419679990748	0.8920003306964092	0.0	1.7664065377033862	0.8685318186225784	0.0	1.767122890645407	0.4748109153565372	0.0	1.7360672536335253	0.12805806253690954	0.0	1.75859613992117	-0.005857434341192869	0.0	1.689751578560689	0.003856090394450895	0.0	1.7469396475781194	0.0761366801053139	0.0	1.9763750957016322	0.8658510073920407	0.0	2.032809068338142	0.4824027823717189	0.0	2.1217611383859203	0.1645686603415554	0.0	2.0682204483102935	0.02329990644121266	0.0	2.1404020885783486	0.027451050968861253	0.0	2.1479574681131504	0.1126602446190403	0.0	1.8669295853893646	1.4970664805900056	0.0	1.9018275984674304	1.7686953482900625	0.0	1.9957399058976568	1.6375971577074433	0.0	1.6841915875626325	1.3900967753685434	0.0	1.6078434971163253	1.101788608211241	0.0	1.7937593788057107	1.0586121212886292	0.0	2.0466791281666894	1.4060323626736317	0.0	2.112247509444531	1.1282578101245149	0.0	2.026618108821481	1.024200842768399	0.0
150	5.0	1.8737933638444177	0.897408351291563	0.0	1.7663664860307549	0.8759329769154781	0.0	1.7686467396424133	0.4803157010279479	0.0	1.7357621797138327	0.12779102199269957	0.0	1.7606387553206015	-0.0017741416343319896	0.0	1.6909350465991826	0.006756133208083556	0.0	1.7460548977179393	0.07644079985723042	0.0	1.9804620594752993	0.8729928249963381	0.0	2.0333502947661475	0.4848637674827881	0.0	2.1202052025410856	0.16533296663061697	0.0	2.069699051578088	0.026555077183826565	0.0	2.1407749224217674	0.03011306630365187	0.0	2.1476788769527033	0.11281658292969353	0.0	1.868581286539515	1.5014233634067766	0.0	1.9031959927509376	1.769843232099993	0.0	1.9982043657834818	1.6414326391613228	0.0	1.687257301498737	1.392652207655706	0.0	1.608256946121105	1.1015049320617265	0.0	1.7969463517340218	1.0720687454737412	0.0	2.048369345076891	1.408054754697634	0.0	2.1132206651914114	1.1272975443939168	0.0	2.0260568322656884	1.029743006517975	0.0
151	5.033333333333333	1.875321559923048	0.9032803651235132	0.0	1.7687079782520159	0.881656021953471	0.0	1.7701297464903876	0.4819652735664504	0.0	1.7364579328402647	0.12792941275099529	0.0	1.761486951750829	-0.0016412107923607115	0.0	1.6914285199183812	0.005052580370635222	0.0	1.7443255682820196	0.07762011748706468	0.0	1.9842335932230837	0.8788425410251663	0.0	2.0340915839068074	0.48477161944311736	0.0	2.119287177039562	0.16676271220573344	0.0	2.0710816379082213	0.02665186592926702	0.0	2.1399152307725293	0.030627323371911024	0.0	2.14638496047127	0.11544742329374576	0.0	1.8706443442032032	1.504974321981074	0.0	1.9055064030178899	1.7688768719483157	0.0	2.001346462744133	1.6417208827553649	0.0	1.6884369076790564	1.394484312752819	0.0	1.6100123146921246	1.101490897218605	0.0	1.7986268043916873	1.0857755835284881	0.0	2.0494640350517317	1.4099983035024062	0.0	2.116007074694441	1.1276627831116397	0.0	2.026891255986725	1.0418979868205198	0.0
152	5.066666666666666	1.8782875480351584	0.9063083150877044	0.0	1.7722631591710531	0.8836140312765062	0.0	1.7705089798366453	0.48041046036415863	0.0	1.7379606632752664	0.12733364343012812	0.0	1.7603189117495022	-0.003550700452674934	0.0	1.6902260590594684	0.0025265845270627933	0.0	1.7439174255477365	0.07693483395398966	0.0	1.9872464284228342	0.8807465468158753	0.0	2.03492172539181	0.4838274507884908	0.0	2.1196652584924887	0.16666971932949237	0.0	2.070678626703184	0.025819417246392355	0.0	2.1392048739042413	0.030591353200071968	0.0	2.145695433975927	0.11585775121054535	0.0	1.8730839739641403	1.5073073431093054	0.0	1.908763797974654	1.768878738630663	0.0	2.0049985473673932	1.6395827876952547	0.0	1.6891983781573559	1.3960998578852106	0.0	1.6117081419537473	1.1044876250774962	0.0	1.7980718896943384	1.0921365513575434	0.0	2.0511587169988523	1.4118052532571508	0.0	2.1196978926252554	1.1304309725487534	0.0	2.029317418084175	1.0528464771001942	0.0
153	5.1	1.8816604571335298	0.905832033970846	0.0	1.774882452848426	0.8827890755006373	0.0	1.7712476743107564	0.48073628900847043	0.0	1.7389721048399867	0.12778900325906128	0.0	1.7596435428792316	-0.0018330465113374143	0.0	1.68938250229225	0.004321214739071707	0.0	1.7448735501304597	0.07573795622523763	0.0	1.9891686630817476	0.879784056974568	0.0	2.0359729428433897	0.48528057660474394	0.0	2.1205265665818507	0.16524424291557943	0.0	2.0693797320057508	0.027248868375049112	0.0	2.1401074689717188	0.03204659001931684	0.0	2.145460601185481	0.11177627631436443	0.0	1.8751615003468434	1.508786365865924	0.0	1.9117369148892158	1.7709706734820918	0.0	2.008529734076368	1.6383789512959408	0.0	1.6912821146154156	1.3977023530597628	0.0	1.6117751301118102	1.11072461735708	0.0	1.7967721206833775	1.090419647428484	0.0	2.054420830167473	1.4133973664159845	0.0	2.123120346486619	1.1341289121817442	0.0	2.0303589931771713	1.0535664504957623	0.0
154	5.133333333333333	1.8841041491666177	0.9042920246736001	0.0	1.7766792622089675	0.8804614692020831	0.0	1.772446800805935	0.481882251841611	0.0	1.7390557925283705	0.13017655806774542	0.0	1.759847657691838	0.0009726638023803851	0.0	1.690107832894806	0.007007002724020527	0.0	1.7468234094032467	0.07666078571609604	0.0	1.9900276610840013	0.8778489888440255	0.0	2.037671521585575	0.48812324908840954	0.0	2.1213085864364682	0.16437993724069155	0.0	2.068509773310317	0.02916012975120724	0.0	2.1413036298391246	0.03325739007648975	0.0	2.1450617646058308	0.10754696958016896	0.0	1.8769328151067597	1.509107622931843	0.0	1.913738112184612	1.773236814342089	0.0	2.011437819338544	1.6393539630374427	0.0	1.6938025216845172	1.3988832559960513	0.0	1.6120725631220278	1.114731439349137	0.0	1.7970780957594836	1.087572535081871	0.0	2.0585324370462645	1.4145223939014635	0.0	2.126440403100393	1.1360816867179897	0.0	2.030450720926999	1.0488479187311952	0.0
